%
M48
M72
T01C0.01300
T02C0.01400
T03C0.02200
T04C0.03150
T05C0.03200
T06C0.03543
T07C0.03937
T08C0.04000
T09C0.04016
T10C0.04400
T11C0.05512
T12C0.11000
T13C0.11800
T14C0.13000
T15C0.22000
%
T01
X195095Y303350
T02
X444595Y321600
X389595Y324100
X344595Y286600
X362095Y274100
X364595Y266600
X319595Y284100
X292095Y263600
X277095Y281600
X284595Y288600
X254595Y281600
X230595Y266600
X224595Y236600
X217095Y214100
X199595Y204100
X249595Y199100
X269595Y199100
X297095Y189100
X297095Y184100
X297095Y179100
X297095Y174100
X297095Y169100
X302095Y169100
X302095Y174100
X302095Y179100
X302095Y184100
X302095Y189100
X307095Y189100
X307095Y184100
X307095Y179100
X307095Y174100
X307095Y169100
X312095Y169100
X312095Y174100
X312095Y179100
X312095Y184100
X312095Y189100
X317095Y189100
X317095Y184100
X317095Y179100
X317095Y174100
X317095Y169100
X322095Y169100
X322095Y174100
X322095Y179100
X322095Y184100
X322095Y189100
X327095Y189100
X327095Y184100
X327095Y179100
X327095Y174100
X327095Y169100
X327095Y164100
X322095Y164100
X317095Y164100
X317095Y159100
X317095Y154100
X317095Y149100
X317095Y144100
X317095Y139100
X317095Y134100
X322095Y134100
X322095Y139100
X322095Y144100
X322095Y149100
X322095Y154100
X322095Y159100
X327095Y159100
X327095Y154100
X327095Y149100
X327095Y144100
X327095Y139100
X327095Y134100
X327095Y129100
X332095Y126600
X337095Y126600
X342095Y126600
X344595Y129100
X349595Y129100
X349595Y139100
X344595Y139100
X344595Y144100
X352095Y159100
X312095Y159100
X307095Y159100
X302095Y159100
X297095Y159100
X297095Y154100
X297095Y149100
X297095Y144100
X297095Y139100
X297095Y134100
X302095Y134100
X302095Y139100
X302095Y144100
X302095Y149100
X302095Y154100
X307095Y154100
X307095Y149100
X307095Y144100
X307095Y139100
X307095Y134100
X312095Y134100
X312095Y139100
X312095Y144100
X312095Y149100
X312095Y154100
X312095Y164100
X307095Y164100
X302095Y164100
X297095Y164100
X281595Y136100
X279595Y126600
X252095Y146600
X254595Y166600
X247095Y169100
X254595Y231600
X184595Y284100
X174595Y280100
X164595Y284100
X147095Y279100
X82095Y294100
X84595Y364100
X316595Y342100
X309595Y339100
X244595Y376600
X314595Y394100
X362095Y219100
X267095Y44100
X222095Y29100
X327095Y24100
X357095Y24100
X412095Y24100
X87095Y69100
X72095Y166600
X84595Y171600
T03
X346095Y134100
T04
X374595Y357289
X374595Y365163
X374595Y373037
X374595Y380911
X282784Y54100
X290658Y54100
X298532Y54100
X306406Y54100
T05
X94595Y249100
X84595Y249100
X84595Y216600
X94595Y216600
X94595Y184100
X84595Y184100
X84595Y151600
X94595Y151600
T06
X431570Y329100
X431620Y339100
X431570Y349100
X431620Y359125
X402095Y351600
X402095Y391600
X332570Y354075
X332620Y364100
X332570Y374100
X332620Y384100
X305120Y384100
X305070Y374100
X305120Y364100
X305070Y354075
X290070Y354075
X290120Y364100
X290070Y374100
X290120Y384100
X169595Y264100
X169595Y246600
X169595Y229100
X169595Y211600
X129595Y211600
X129595Y229100
X129595Y246600
X129595Y264100
X304595Y244100
X317095Y244100
X329595Y244100
X349595Y249100
X329595Y214100
X317095Y214100
X304595Y214100
X349595Y209100
X139620Y84575
X129595Y84625
X119595Y84575
X109595Y84625
T07
X94595Y326600
X94595Y336600
X92095Y109100
X92095Y99100
T08
X358595Y326100
X348595Y327100
X338595Y326100
X328595Y327100
X318595Y326100
X308595Y327100
X298595Y326100
X288595Y327100
X278595Y326100
X268595Y327100
X258595Y326100
X248595Y327100
X238595Y326100
X228595Y327100
X218595Y326100
X208595Y327100
X198595Y326100
X188595Y327100
X178595Y326100
X168595Y327100
X170095Y308350
X160095Y308350
X150095Y308350
X140095Y308350
X140095Y298350
X150095Y298350
X160095Y298350
X170095Y298350
X180095Y298350
X180095Y308350
X190095Y308350
X190095Y298350
X200095Y298350
X200095Y308350
X210095Y308350
X210095Y298350
X220095Y298350
X220095Y308350
X230095Y308350
X230095Y298350
X240095Y298350
X240095Y308350
X250095Y308350
X250095Y298350
X260095Y298350
X260095Y308350
X270095Y308350
X270095Y298350
X280095Y298350
X280095Y308350
X290095Y308350
X290095Y298350
X300095Y298350
X300095Y308350
X310095Y308350
X310095Y298350
X320095Y298350
X320095Y308350
X330095Y308350
X330095Y298350
X158595Y84850
X168595Y85850
X178595Y84850
X328595Y84850
X338595Y85850
X348595Y84850
T09
X137095Y191600
X137095Y181600
X112095Y181850
X112095Y148350
X137095Y149600
X137095Y139600
X212095Y139600
X212095Y149600
X202095Y148350
X202095Y181850
X212095Y181600
X212095Y191600
T10
X141595Y110100
X181595Y110100
T11
X212253Y49828
X231938Y49828
X342253Y52328
X361938Y52328
X382253Y52328
X401938Y52328
T12
X349095Y303350
X227345Y369100
X227345Y391600
X120845Y303100
X107345Y369100
X107345Y391600
X120845Y110350
X349345Y110350
T13
X162095Y68037
X180599Y56226
X162095Y44415
T14
X81095Y35100
X257095Y344600
X257095Y389600
X257095Y25600
X257095Y69100
X433095Y35100
T15
X118345Y43100
M30
