G75*
%MOIN*%
%OFA0B0*%
%FSLAX25Y25*%
%IPPOS*%
%LPD*%
%AMOC8*
5,1,8,0,0,1.08239X$1,22.5*
%
%ADD10C,0.00600*%
%ADD11C,0.00000*%
D10*
X0049595Y0021600D02*
X0049595Y0391350D01*
X0049595Y0391600D02*
X0049598Y0391842D01*
X0049607Y0392083D01*
X0049621Y0392324D01*
X0049642Y0392565D01*
X0049668Y0392805D01*
X0049700Y0393045D01*
X0049738Y0393284D01*
X0049781Y0393521D01*
X0049831Y0393758D01*
X0049886Y0393993D01*
X0049946Y0394227D01*
X0050013Y0394459D01*
X0050084Y0394690D01*
X0050162Y0394919D01*
X0050245Y0395146D01*
X0050333Y0395371D01*
X0050427Y0395594D01*
X0050526Y0395814D01*
X0050631Y0396032D01*
X0050740Y0396247D01*
X0050855Y0396460D01*
X0050975Y0396670D01*
X0051100Y0396876D01*
X0051230Y0397080D01*
X0051365Y0397281D01*
X0051505Y0397478D01*
X0051649Y0397672D01*
X0051798Y0397862D01*
X0051952Y0398048D01*
X0052110Y0398231D01*
X0052272Y0398410D01*
X0052439Y0398585D01*
X0052610Y0398756D01*
X0052785Y0398923D01*
X0052964Y0399085D01*
X0053147Y0399243D01*
X0053333Y0399397D01*
X0053523Y0399546D01*
X0053717Y0399690D01*
X0053914Y0399830D01*
X0054115Y0399965D01*
X0054319Y0400095D01*
X0054525Y0400220D01*
X0054735Y0400340D01*
X0054948Y0400455D01*
X0055163Y0400564D01*
X0055381Y0400669D01*
X0055601Y0400768D01*
X0055824Y0400862D01*
X0056049Y0400950D01*
X0056276Y0401033D01*
X0056505Y0401111D01*
X0056736Y0401182D01*
X0056968Y0401249D01*
X0057202Y0401309D01*
X0057437Y0401364D01*
X0057674Y0401414D01*
X0057911Y0401457D01*
X0058150Y0401495D01*
X0058390Y0401527D01*
X0058630Y0401553D01*
X0058871Y0401574D01*
X0059112Y0401588D01*
X0059353Y0401597D01*
X0059595Y0401600D01*
X0059845Y0401600D02*
X0429595Y0401600D01*
X0429837Y0401597D01*
X0430078Y0401588D01*
X0430319Y0401574D01*
X0430560Y0401553D01*
X0430800Y0401527D01*
X0431040Y0401495D01*
X0431279Y0401457D01*
X0431516Y0401414D01*
X0431753Y0401364D01*
X0431988Y0401309D01*
X0432222Y0401249D01*
X0432454Y0401182D01*
X0432685Y0401111D01*
X0432914Y0401033D01*
X0433141Y0400950D01*
X0433366Y0400862D01*
X0433589Y0400768D01*
X0433809Y0400669D01*
X0434027Y0400564D01*
X0434242Y0400455D01*
X0434455Y0400340D01*
X0434665Y0400220D01*
X0434871Y0400095D01*
X0435075Y0399965D01*
X0435276Y0399830D01*
X0435473Y0399690D01*
X0435667Y0399546D01*
X0435857Y0399397D01*
X0436043Y0399243D01*
X0436226Y0399085D01*
X0436405Y0398923D01*
X0436580Y0398756D01*
X0436751Y0398585D01*
X0436918Y0398410D01*
X0437080Y0398231D01*
X0437238Y0398048D01*
X0437392Y0397862D01*
X0437541Y0397672D01*
X0437685Y0397478D01*
X0437825Y0397281D01*
X0437960Y0397080D01*
X0438090Y0396876D01*
X0438215Y0396670D01*
X0438335Y0396460D01*
X0438450Y0396247D01*
X0438559Y0396032D01*
X0438664Y0395814D01*
X0438763Y0395594D01*
X0438857Y0395371D01*
X0438945Y0395146D01*
X0439028Y0394919D01*
X0439106Y0394690D01*
X0439177Y0394459D01*
X0439244Y0394227D01*
X0439304Y0393993D01*
X0439359Y0393758D01*
X0439409Y0393521D01*
X0439452Y0393284D01*
X0439490Y0393045D01*
X0439522Y0392805D01*
X0439548Y0392565D01*
X0439569Y0392324D01*
X0439583Y0392083D01*
X0439592Y0391842D01*
X0439595Y0391600D01*
X0439595Y0391350D02*
X0439595Y0021600D01*
X0439592Y0021358D01*
X0439583Y0021117D01*
X0439569Y0020876D01*
X0439548Y0020635D01*
X0439522Y0020395D01*
X0439490Y0020155D01*
X0439452Y0019916D01*
X0439409Y0019679D01*
X0439359Y0019442D01*
X0439304Y0019207D01*
X0439244Y0018973D01*
X0439177Y0018741D01*
X0439106Y0018510D01*
X0439028Y0018281D01*
X0438945Y0018054D01*
X0438857Y0017829D01*
X0438763Y0017606D01*
X0438664Y0017386D01*
X0438559Y0017168D01*
X0438450Y0016953D01*
X0438335Y0016740D01*
X0438215Y0016530D01*
X0438090Y0016324D01*
X0437960Y0016120D01*
X0437825Y0015919D01*
X0437685Y0015722D01*
X0437541Y0015528D01*
X0437392Y0015338D01*
X0437238Y0015152D01*
X0437080Y0014969D01*
X0436918Y0014790D01*
X0436751Y0014615D01*
X0436580Y0014444D01*
X0436405Y0014277D01*
X0436226Y0014115D01*
X0436043Y0013957D01*
X0435857Y0013803D01*
X0435667Y0013654D01*
X0435473Y0013510D01*
X0435276Y0013370D01*
X0435075Y0013235D01*
X0434871Y0013105D01*
X0434665Y0012980D01*
X0434455Y0012860D01*
X0434242Y0012745D01*
X0434027Y0012636D01*
X0433809Y0012531D01*
X0433589Y0012432D01*
X0433366Y0012338D01*
X0433141Y0012250D01*
X0432914Y0012167D01*
X0432685Y0012089D01*
X0432454Y0012018D01*
X0432222Y0011951D01*
X0431988Y0011891D01*
X0431753Y0011836D01*
X0431516Y0011786D01*
X0431279Y0011743D01*
X0431040Y0011705D01*
X0430800Y0011673D01*
X0430560Y0011647D01*
X0430319Y0011626D01*
X0430078Y0011612D01*
X0429837Y0011603D01*
X0429595Y0011600D01*
X0059595Y0011600D01*
X0059353Y0011603D01*
X0059112Y0011612D01*
X0058871Y0011626D01*
X0058630Y0011647D01*
X0058390Y0011673D01*
X0058150Y0011705D01*
X0057911Y0011743D01*
X0057674Y0011786D01*
X0057437Y0011836D01*
X0057202Y0011891D01*
X0056968Y0011951D01*
X0056736Y0012018D01*
X0056505Y0012089D01*
X0056276Y0012167D01*
X0056049Y0012250D01*
X0055824Y0012338D01*
X0055601Y0012432D01*
X0055381Y0012531D01*
X0055163Y0012636D01*
X0054948Y0012745D01*
X0054735Y0012860D01*
X0054525Y0012980D01*
X0054319Y0013105D01*
X0054115Y0013235D01*
X0053914Y0013370D01*
X0053717Y0013510D01*
X0053523Y0013654D01*
X0053333Y0013803D01*
X0053147Y0013957D01*
X0052964Y0014115D01*
X0052785Y0014277D01*
X0052610Y0014444D01*
X0052439Y0014615D01*
X0052272Y0014790D01*
X0052110Y0014969D01*
X0051952Y0015152D01*
X0051798Y0015338D01*
X0051649Y0015528D01*
X0051505Y0015722D01*
X0051365Y0015919D01*
X0051230Y0016120D01*
X0051100Y0016324D01*
X0050975Y0016530D01*
X0050855Y0016740D01*
X0050740Y0016953D01*
X0050631Y0017168D01*
X0050526Y0017386D01*
X0050427Y0017606D01*
X0050333Y0017829D01*
X0050245Y0018054D01*
X0050162Y0018281D01*
X0050084Y0018510D01*
X0050013Y0018741D01*
X0049946Y0018973D01*
X0049886Y0019207D01*
X0049831Y0019442D01*
X0049781Y0019679D01*
X0049738Y0019916D01*
X0049700Y0020155D01*
X0049668Y0020395D01*
X0049642Y0020635D01*
X0049621Y0020876D01*
X0049607Y0021117D01*
X0049598Y0021358D01*
X0049595Y0021600D01*
X0104595Y0161600D02*
X0104595Y0186600D01*
X0099595Y0191600D01*
X0099595Y0226600D01*
X0104595Y0231600D01*
X0104595Y0249100D01*
X0117095Y0249100D01*
X0117095Y0161600D01*
X0104595Y0161600D01*
X0267095Y0181600D02*
X0267095Y0099100D01*
X0277095Y0099100D01*
X0277095Y0116600D01*
X0284595Y0121600D01*
X0284595Y0156600D01*
X0277095Y0161600D01*
X0277095Y0181600D01*
X0267095Y0181600D01*
D11*
X0331345Y0110350D02*
X0331347Y0110498D01*
X0331353Y0110646D01*
X0331363Y0110794D01*
X0331377Y0110942D01*
X0331395Y0111089D01*
X0331417Y0111236D01*
X0331443Y0111382D01*
X0331472Y0111527D01*
X0331506Y0111672D01*
X0331544Y0111815D01*
X0331585Y0111958D01*
X0331630Y0112099D01*
X0331680Y0112239D01*
X0331732Y0112377D01*
X0331789Y0112515D01*
X0331849Y0112650D01*
X0331913Y0112784D01*
X0331980Y0112916D01*
X0332051Y0113046D01*
X0332126Y0113175D01*
X0332204Y0113301D01*
X0332285Y0113425D01*
X0332369Y0113547D01*
X0332457Y0113666D01*
X0332548Y0113783D01*
X0332642Y0113898D01*
X0332740Y0114010D01*
X0332840Y0114119D01*
X0332943Y0114226D01*
X0333049Y0114330D01*
X0333157Y0114431D01*
X0333269Y0114529D01*
X0333383Y0114624D01*
X0333499Y0114715D01*
X0333618Y0114804D01*
X0333739Y0114889D01*
X0333863Y0114971D01*
X0333989Y0115050D01*
X0334116Y0115125D01*
X0334246Y0115197D01*
X0334378Y0115266D01*
X0334511Y0115330D01*
X0334646Y0115391D01*
X0334783Y0115449D01*
X0334921Y0115503D01*
X0335061Y0115553D01*
X0335202Y0115599D01*
X0335344Y0115641D01*
X0335487Y0115680D01*
X0335631Y0115714D01*
X0335777Y0115745D01*
X0335922Y0115772D01*
X0336069Y0115795D01*
X0336216Y0115814D01*
X0336364Y0115829D01*
X0336511Y0115840D01*
X0336660Y0115847D01*
X0336808Y0115850D01*
X0336956Y0115849D01*
X0337104Y0115844D01*
X0337252Y0115835D01*
X0337400Y0115822D01*
X0337548Y0115805D01*
X0337694Y0115784D01*
X0337841Y0115759D01*
X0337986Y0115730D01*
X0338131Y0115698D01*
X0338274Y0115661D01*
X0338417Y0115621D01*
X0338559Y0115576D01*
X0338699Y0115528D01*
X0338838Y0115476D01*
X0338975Y0115421D01*
X0339111Y0115361D01*
X0339246Y0115298D01*
X0339378Y0115232D01*
X0339509Y0115162D01*
X0339638Y0115088D01*
X0339764Y0115011D01*
X0339889Y0114931D01*
X0340011Y0114847D01*
X0340132Y0114760D01*
X0340249Y0114670D01*
X0340365Y0114576D01*
X0340477Y0114480D01*
X0340587Y0114381D01*
X0340695Y0114278D01*
X0340799Y0114173D01*
X0340901Y0114065D01*
X0340999Y0113954D01*
X0341095Y0113841D01*
X0341188Y0113725D01*
X0341277Y0113607D01*
X0341363Y0113486D01*
X0341446Y0113363D01*
X0341526Y0113238D01*
X0341602Y0113111D01*
X0341675Y0112981D01*
X0341744Y0112850D01*
X0341809Y0112717D01*
X0341872Y0112583D01*
X0341930Y0112446D01*
X0341985Y0112308D01*
X0342035Y0112169D01*
X0342083Y0112028D01*
X0342126Y0111887D01*
X0342166Y0111744D01*
X0342201Y0111600D01*
X0342233Y0111455D01*
X0342261Y0111309D01*
X0342285Y0111163D01*
X0342305Y0111016D01*
X0342321Y0110868D01*
X0342333Y0110721D01*
X0342341Y0110572D01*
X0342345Y0110424D01*
X0342345Y0110276D01*
X0342341Y0110128D01*
X0342333Y0109979D01*
X0342321Y0109832D01*
X0342305Y0109684D01*
X0342285Y0109537D01*
X0342261Y0109391D01*
X0342233Y0109245D01*
X0342201Y0109100D01*
X0342166Y0108956D01*
X0342126Y0108813D01*
X0342083Y0108672D01*
X0342035Y0108531D01*
X0341985Y0108392D01*
X0341930Y0108254D01*
X0341872Y0108117D01*
X0341809Y0107983D01*
X0341744Y0107850D01*
X0341675Y0107719D01*
X0341602Y0107589D01*
X0341526Y0107462D01*
X0341446Y0107337D01*
X0341363Y0107214D01*
X0341277Y0107093D01*
X0341188Y0106975D01*
X0341095Y0106859D01*
X0340999Y0106746D01*
X0340901Y0106635D01*
X0340799Y0106527D01*
X0340695Y0106422D01*
X0340587Y0106319D01*
X0340477Y0106220D01*
X0340365Y0106124D01*
X0340249Y0106030D01*
X0340132Y0105940D01*
X0340011Y0105853D01*
X0339889Y0105769D01*
X0339764Y0105689D01*
X0339638Y0105612D01*
X0339509Y0105538D01*
X0339378Y0105468D01*
X0339246Y0105402D01*
X0339111Y0105339D01*
X0338975Y0105279D01*
X0338838Y0105224D01*
X0338699Y0105172D01*
X0338559Y0105124D01*
X0338417Y0105079D01*
X0338274Y0105039D01*
X0338131Y0105002D01*
X0337986Y0104970D01*
X0337841Y0104941D01*
X0337694Y0104916D01*
X0337548Y0104895D01*
X0337400Y0104878D01*
X0337252Y0104865D01*
X0337104Y0104856D01*
X0336956Y0104851D01*
X0336808Y0104850D01*
X0336660Y0104853D01*
X0336511Y0104860D01*
X0336364Y0104871D01*
X0336216Y0104886D01*
X0336069Y0104905D01*
X0335922Y0104928D01*
X0335777Y0104955D01*
X0335631Y0104986D01*
X0335487Y0105020D01*
X0335344Y0105059D01*
X0335202Y0105101D01*
X0335061Y0105147D01*
X0334921Y0105197D01*
X0334783Y0105251D01*
X0334646Y0105309D01*
X0334511Y0105370D01*
X0334378Y0105434D01*
X0334246Y0105503D01*
X0334116Y0105575D01*
X0333989Y0105650D01*
X0333863Y0105729D01*
X0333739Y0105811D01*
X0333618Y0105896D01*
X0333499Y0105985D01*
X0333383Y0106076D01*
X0333269Y0106171D01*
X0333157Y0106269D01*
X0333049Y0106370D01*
X0332943Y0106474D01*
X0332840Y0106581D01*
X0332740Y0106690D01*
X0332642Y0106802D01*
X0332548Y0106917D01*
X0332457Y0107034D01*
X0332369Y0107153D01*
X0332285Y0107275D01*
X0332204Y0107399D01*
X0332126Y0107525D01*
X0332051Y0107654D01*
X0331980Y0107784D01*
X0331913Y0107916D01*
X0331849Y0108050D01*
X0331789Y0108185D01*
X0331732Y0108323D01*
X0331680Y0108461D01*
X0331630Y0108601D01*
X0331585Y0108742D01*
X0331544Y0108885D01*
X0331506Y0109028D01*
X0331472Y0109173D01*
X0331443Y0109318D01*
X0331417Y0109464D01*
X0331395Y0109611D01*
X0331377Y0109758D01*
X0331363Y0109906D01*
X0331353Y0110054D01*
X0331347Y0110202D01*
X0331345Y0110350D01*
X0415595Y0029600D02*
X0415597Y0029761D01*
X0415603Y0029921D01*
X0415613Y0030082D01*
X0415627Y0030242D01*
X0415645Y0030402D01*
X0415666Y0030561D01*
X0415692Y0030720D01*
X0415722Y0030878D01*
X0415755Y0031035D01*
X0415793Y0031192D01*
X0415834Y0031347D01*
X0415879Y0031501D01*
X0415928Y0031654D01*
X0415981Y0031806D01*
X0416037Y0031957D01*
X0416098Y0032106D01*
X0416161Y0032254D01*
X0416229Y0032400D01*
X0416300Y0032544D01*
X0416374Y0032686D01*
X0416452Y0032827D01*
X0416534Y0032965D01*
X0416619Y0033102D01*
X0416707Y0033236D01*
X0416799Y0033368D01*
X0416894Y0033498D01*
X0416992Y0033626D01*
X0417093Y0033751D01*
X0417197Y0033873D01*
X0417304Y0033993D01*
X0417414Y0034110D01*
X0417527Y0034225D01*
X0417643Y0034336D01*
X0417762Y0034445D01*
X0417883Y0034550D01*
X0418007Y0034653D01*
X0418133Y0034753D01*
X0418261Y0034849D01*
X0418392Y0034942D01*
X0418526Y0035032D01*
X0418661Y0035119D01*
X0418799Y0035202D01*
X0418938Y0035282D01*
X0419080Y0035358D01*
X0419223Y0035431D01*
X0419368Y0035500D01*
X0419515Y0035566D01*
X0419663Y0035628D01*
X0419813Y0035686D01*
X0419964Y0035741D01*
X0420117Y0035792D01*
X0420271Y0035839D01*
X0420426Y0035882D01*
X0420582Y0035921D01*
X0420738Y0035957D01*
X0420896Y0035988D01*
X0421054Y0036016D01*
X0421213Y0036040D01*
X0421373Y0036060D01*
X0421533Y0036076D01*
X0421693Y0036088D01*
X0421854Y0036096D01*
X0422015Y0036100D01*
X0422175Y0036100D01*
X0422336Y0036096D01*
X0422497Y0036088D01*
X0422657Y0036076D01*
X0422817Y0036060D01*
X0422977Y0036040D01*
X0423136Y0036016D01*
X0423294Y0035988D01*
X0423452Y0035957D01*
X0423608Y0035921D01*
X0423764Y0035882D01*
X0423919Y0035839D01*
X0424073Y0035792D01*
X0424226Y0035741D01*
X0424377Y0035686D01*
X0424527Y0035628D01*
X0424675Y0035566D01*
X0424822Y0035500D01*
X0424967Y0035431D01*
X0425110Y0035358D01*
X0425252Y0035282D01*
X0425391Y0035202D01*
X0425529Y0035119D01*
X0425664Y0035032D01*
X0425798Y0034942D01*
X0425929Y0034849D01*
X0426057Y0034753D01*
X0426183Y0034653D01*
X0426307Y0034550D01*
X0426428Y0034445D01*
X0426547Y0034336D01*
X0426663Y0034225D01*
X0426776Y0034110D01*
X0426886Y0033993D01*
X0426993Y0033873D01*
X0427097Y0033751D01*
X0427198Y0033626D01*
X0427296Y0033498D01*
X0427391Y0033368D01*
X0427483Y0033236D01*
X0427571Y0033102D01*
X0427656Y0032965D01*
X0427738Y0032827D01*
X0427816Y0032686D01*
X0427890Y0032544D01*
X0427961Y0032400D01*
X0428029Y0032254D01*
X0428092Y0032106D01*
X0428153Y0031957D01*
X0428209Y0031806D01*
X0428262Y0031654D01*
X0428311Y0031501D01*
X0428356Y0031347D01*
X0428397Y0031192D01*
X0428435Y0031035D01*
X0428468Y0030878D01*
X0428498Y0030720D01*
X0428524Y0030561D01*
X0428545Y0030402D01*
X0428563Y0030242D01*
X0428577Y0030082D01*
X0428587Y0029921D01*
X0428593Y0029761D01*
X0428595Y0029600D01*
X0428593Y0029439D01*
X0428587Y0029279D01*
X0428577Y0029118D01*
X0428563Y0028958D01*
X0428545Y0028798D01*
X0428524Y0028639D01*
X0428498Y0028480D01*
X0428468Y0028322D01*
X0428435Y0028165D01*
X0428397Y0028008D01*
X0428356Y0027853D01*
X0428311Y0027699D01*
X0428262Y0027546D01*
X0428209Y0027394D01*
X0428153Y0027243D01*
X0428092Y0027094D01*
X0428029Y0026946D01*
X0427961Y0026800D01*
X0427890Y0026656D01*
X0427816Y0026514D01*
X0427738Y0026373D01*
X0427656Y0026235D01*
X0427571Y0026098D01*
X0427483Y0025964D01*
X0427391Y0025832D01*
X0427296Y0025702D01*
X0427198Y0025574D01*
X0427097Y0025449D01*
X0426993Y0025327D01*
X0426886Y0025207D01*
X0426776Y0025090D01*
X0426663Y0024975D01*
X0426547Y0024864D01*
X0426428Y0024755D01*
X0426307Y0024650D01*
X0426183Y0024547D01*
X0426057Y0024447D01*
X0425929Y0024351D01*
X0425798Y0024258D01*
X0425664Y0024168D01*
X0425529Y0024081D01*
X0425391Y0023998D01*
X0425252Y0023918D01*
X0425110Y0023842D01*
X0424967Y0023769D01*
X0424822Y0023700D01*
X0424675Y0023634D01*
X0424527Y0023572D01*
X0424377Y0023514D01*
X0424226Y0023459D01*
X0424073Y0023408D01*
X0423919Y0023361D01*
X0423764Y0023318D01*
X0423608Y0023279D01*
X0423452Y0023243D01*
X0423294Y0023212D01*
X0423136Y0023184D01*
X0422977Y0023160D01*
X0422817Y0023140D01*
X0422657Y0023124D01*
X0422497Y0023112D01*
X0422336Y0023104D01*
X0422175Y0023100D01*
X0422015Y0023100D01*
X0421854Y0023104D01*
X0421693Y0023112D01*
X0421533Y0023124D01*
X0421373Y0023140D01*
X0421213Y0023160D01*
X0421054Y0023184D01*
X0420896Y0023212D01*
X0420738Y0023243D01*
X0420582Y0023279D01*
X0420426Y0023318D01*
X0420271Y0023361D01*
X0420117Y0023408D01*
X0419964Y0023459D01*
X0419813Y0023514D01*
X0419663Y0023572D01*
X0419515Y0023634D01*
X0419368Y0023700D01*
X0419223Y0023769D01*
X0419080Y0023842D01*
X0418938Y0023918D01*
X0418799Y0023998D01*
X0418661Y0024081D01*
X0418526Y0024168D01*
X0418392Y0024258D01*
X0418261Y0024351D01*
X0418133Y0024447D01*
X0418007Y0024547D01*
X0417883Y0024650D01*
X0417762Y0024755D01*
X0417643Y0024864D01*
X0417527Y0024975D01*
X0417414Y0025090D01*
X0417304Y0025207D01*
X0417197Y0025327D01*
X0417093Y0025449D01*
X0416992Y0025574D01*
X0416894Y0025702D01*
X0416799Y0025832D01*
X0416707Y0025964D01*
X0416619Y0026098D01*
X0416534Y0026235D01*
X0416452Y0026373D01*
X0416374Y0026514D01*
X0416300Y0026656D01*
X0416229Y0026800D01*
X0416161Y0026946D01*
X0416098Y0027094D01*
X0416037Y0027243D01*
X0415981Y0027394D01*
X0415928Y0027546D01*
X0415879Y0027699D01*
X0415834Y0027853D01*
X0415793Y0028008D01*
X0415755Y0028165D01*
X0415722Y0028322D01*
X0415692Y0028480D01*
X0415666Y0028639D01*
X0415645Y0028798D01*
X0415627Y0028958D01*
X0415613Y0029118D01*
X0415603Y0029279D01*
X0415597Y0029439D01*
X0415595Y0029600D01*
X0331095Y0303350D02*
X0331097Y0303498D01*
X0331103Y0303646D01*
X0331113Y0303794D01*
X0331127Y0303942D01*
X0331145Y0304089D01*
X0331167Y0304236D01*
X0331193Y0304382D01*
X0331222Y0304527D01*
X0331256Y0304672D01*
X0331294Y0304815D01*
X0331335Y0304958D01*
X0331380Y0305099D01*
X0331430Y0305239D01*
X0331482Y0305377D01*
X0331539Y0305515D01*
X0331599Y0305650D01*
X0331663Y0305784D01*
X0331730Y0305916D01*
X0331801Y0306046D01*
X0331876Y0306175D01*
X0331954Y0306301D01*
X0332035Y0306425D01*
X0332119Y0306547D01*
X0332207Y0306666D01*
X0332298Y0306783D01*
X0332392Y0306898D01*
X0332490Y0307010D01*
X0332590Y0307119D01*
X0332693Y0307226D01*
X0332799Y0307330D01*
X0332907Y0307431D01*
X0333019Y0307529D01*
X0333133Y0307624D01*
X0333249Y0307715D01*
X0333368Y0307804D01*
X0333489Y0307889D01*
X0333613Y0307971D01*
X0333739Y0308050D01*
X0333866Y0308125D01*
X0333996Y0308197D01*
X0334128Y0308266D01*
X0334261Y0308330D01*
X0334396Y0308391D01*
X0334533Y0308449D01*
X0334671Y0308503D01*
X0334811Y0308553D01*
X0334952Y0308599D01*
X0335094Y0308641D01*
X0335237Y0308680D01*
X0335381Y0308714D01*
X0335527Y0308745D01*
X0335672Y0308772D01*
X0335819Y0308795D01*
X0335966Y0308814D01*
X0336114Y0308829D01*
X0336261Y0308840D01*
X0336410Y0308847D01*
X0336558Y0308850D01*
X0336706Y0308849D01*
X0336854Y0308844D01*
X0337002Y0308835D01*
X0337150Y0308822D01*
X0337298Y0308805D01*
X0337444Y0308784D01*
X0337591Y0308759D01*
X0337736Y0308730D01*
X0337881Y0308698D01*
X0338024Y0308661D01*
X0338167Y0308621D01*
X0338309Y0308576D01*
X0338449Y0308528D01*
X0338588Y0308476D01*
X0338725Y0308421D01*
X0338861Y0308361D01*
X0338996Y0308298D01*
X0339128Y0308232D01*
X0339259Y0308162D01*
X0339388Y0308088D01*
X0339514Y0308011D01*
X0339639Y0307931D01*
X0339761Y0307847D01*
X0339882Y0307760D01*
X0339999Y0307670D01*
X0340115Y0307576D01*
X0340227Y0307480D01*
X0340337Y0307381D01*
X0340445Y0307278D01*
X0340549Y0307173D01*
X0340651Y0307065D01*
X0340749Y0306954D01*
X0340845Y0306841D01*
X0340938Y0306725D01*
X0341027Y0306607D01*
X0341113Y0306486D01*
X0341196Y0306363D01*
X0341276Y0306238D01*
X0341352Y0306111D01*
X0341425Y0305981D01*
X0341494Y0305850D01*
X0341559Y0305717D01*
X0341622Y0305583D01*
X0341680Y0305446D01*
X0341735Y0305308D01*
X0341785Y0305169D01*
X0341833Y0305028D01*
X0341876Y0304887D01*
X0341916Y0304744D01*
X0341951Y0304600D01*
X0341983Y0304455D01*
X0342011Y0304309D01*
X0342035Y0304163D01*
X0342055Y0304016D01*
X0342071Y0303868D01*
X0342083Y0303721D01*
X0342091Y0303572D01*
X0342095Y0303424D01*
X0342095Y0303276D01*
X0342091Y0303128D01*
X0342083Y0302979D01*
X0342071Y0302832D01*
X0342055Y0302684D01*
X0342035Y0302537D01*
X0342011Y0302391D01*
X0341983Y0302245D01*
X0341951Y0302100D01*
X0341916Y0301956D01*
X0341876Y0301813D01*
X0341833Y0301672D01*
X0341785Y0301531D01*
X0341735Y0301392D01*
X0341680Y0301254D01*
X0341622Y0301117D01*
X0341559Y0300983D01*
X0341494Y0300850D01*
X0341425Y0300719D01*
X0341352Y0300589D01*
X0341276Y0300462D01*
X0341196Y0300337D01*
X0341113Y0300214D01*
X0341027Y0300093D01*
X0340938Y0299975D01*
X0340845Y0299859D01*
X0340749Y0299746D01*
X0340651Y0299635D01*
X0340549Y0299527D01*
X0340445Y0299422D01*
X0340337Y0299319D01*
X0340227Y0299220D01*
X0340115Y0299124D01*
X0339999Y0299030D01*
X0339882Y0298940D01*
X0339761Y0298853D01*
X0339639Y0298769D01*
X0339514Y0298689D01*
X0339388Y0298612D01*
X0339259Y0298538D01*
X0339128Y0298468D01*
X0338996Y0298402D01*
X0338861Y0298339D01*
X0338725Y0298279D01*
X0338588Y0298224D01*
X0338449Y0298172D01*
X0338309Y0298124D01*
X0338167Y0298079D01*
X0338024Y0298039D01*
X0337881Y0298002D01*
X0337736Y0297970D01*
X0337591Y0297941D01*
X0337444Y0297916D01*
X0337298Y0297895D01*
X0337150Y0297878D01*
X0337002Y0297865D01*
X0336854Y0297856D01*
X0336706Y0297851D01*
X0336558Y0297850D01*
X0336410Y0297853D01*
X0336261Y0297860D01*
X0336114Y0297871D01*
X0335966Y0297886D01*
X0335819Y0297905D01*
X0335672Y0297928D01*
X0335527Y0297955D01*
X0335381Y0297986D01*
X0335237Y0298020D01*
X0335094Y0298059D01*
X0334952Y0298101D01*
X0334811Y0298147D01*
X0334671Y0298197D01*
X0334533Y0298251D01*
X0334396Y0298309D01*
X0334261Y0298370D01*
X0334128Y0298434D01*
X0333996Y0298503D01*
X0333866Y0298575D01*
X0333739Y0298650D01*
X0333613Y0298729D01*
X0333489Y0298811D01*
X0333368Y0298896D01*
X0333249Y0298985D01*
X0333133Y0299076D01*
X0333019Y0299171D01*
X0332907Y0299269D01*
X0332799Y0299370D01*
X0332693Y0299474D01*
X0332590Y0299581D01*
X0332490Y0299690D01*
X0332392Y0299802D01*
X0332298Y0299917D01*
X0332207Y0300034D01*
X0332119Y0300153D01*
X0332035Y0300275D01*
X0331954Y0300399D01*
X0331876Y0300525D01*
X0331801Y0300654D01*
X0331730Y0300784D01*
X0331663Y0300916D01*
X0331599Y0301050D01*
X0331539Y0301185D01*
X0331482Y0301323D01*
X0331430Y0301461D01*
X0331380Y0301601D01*
X0331335Y0301742D01*
X0331294Y0301885D01*
X0331256Y0302028D01*
X0331222Y0302173D01*
X0331193Y0302318D01*
X0331167Y0302464D01*
X0331145Y0302611D01*
X0331127Y0302758D01*
X0331113Y0302906D01*
X0331103Y0303054D01*
X0331097Y0303202D01*
X0331095Y0303350D01*
X0363595Y0383100D02*
X0363597Y0383261D01*
X0363603Y0383421D01*
X0363613Y0383582D01*
X0363627Y0383742D01*
X0363645Y0383902D01*
X0363666Y0384061D01*
X0363692Y0384220D01*
X0363722Y0384378D01*
X0363755Y0384535D01*
X0363793Y0384692D01*
X0363834Y0384847D01*
X0363879Y0385001D01*
X0363928Y0385154D01*
X0363981Y0385306D01*
X0364037Y0385457D01*
X0364098Y0385606D01*
X0364161Y0385754D01*
X0364229Y0385900D01*
X0364300Y0386044D01*
X0364374Y0386186D01*
X0364452Y0386327D01*
X0364534Y0386465D01*
X0364619Y0386602D01*
X0364707Y0386736D01*
X0364799Y0386868D01*
X0364894Y0386998D01*
X0364992Y0387126D01*
X0365093Y0387251D01*
X0365197Y0387373D01*
X0365304Y0387493D01*
X0365414Y0387610D01*
X0365527Y0387725D01*
X0365643Y0387836D01*
X0365762Y0387945D01*
X0365883Y0388050D01*
X0366007Y0388153D01*
X0366133Y0388253D01*
X0366261Y0388349D01*
X0366392Y0388442D01*
X0366526Y0388532D01*
X0366661Y0388619D01*
X0366799Y0388702D01*
X0366938Y0388782D01*
X0367080Y0388858D01*
X0367223Y0388931D01*
X0367368Y0389000D01*
X0367515Y0389066D01*
X0367663Y0389128D01*
X0367813Y0389186D01*
X0367964Y0389241D01*
X0368117Y0389292D01*
X0368271Y0389339D01*
X0368426Y0389382D01*
X0368582Y0389421D01*
X0368738Y0389457D01*
X0368896Y0389488D01*
X0369054Y0389516D01*
X0369213Y0389540D01*
X0369373Y0389560D01*
X0369533Y0389576D01*
X0369693Y0389588D01*
X0369854Y0389596D01*
X0370015Y0389600D01*
X0370175Y0389600D01*
X0370336Y0389596D01*
X0370497Y0389588D01*
X0370657Y0389576D01*
X0370817Y0389560D01*
X0370977Y0389540D01*
X0371136Y0389516D01*
X0371294Y0389488D01*
X0371452Y0389457D01*
X0371608Y0389421D01*
X0371764Y0389382D01*
X0371919Y0389339D01*
X0372073Y0389292D01*
X0372226Y0389241D01*
X0372377Y0389186D01*
X0372527Y0389128D01*
X0372675Y0389066D01*
X0372822Y0389000D01*
X0372967Y0388931D01*
X0373110Y0388858D01*
X0373252Y0388782D01*
X0373391Y0388702D01*
X0373529Y0388619D01*
X0373664Y0388532D01*
X0373798Y0388442D01*
X0373929Y0388349D01*
X0374057Y0388253D01*
X0374183Y0388153D01*
X0374307Y0388050D01*
X0374428Y0387945D01*
X0374547Y0387836D01*
X0374663Y0387725D01*
X0374776Y0387610D01*
X0374886Y0387493D01*
X0374993Y0387373D01*
X0375097Y0387251D01*
X0375198Y0387126D01*
X0375296Y0386998D01*
X0375391Y0386868D01*
X0375483Y0386736D01*
X0375571Y0386602D01*
X0375656Y0386465D01*
X0375738Y0386327D01*
X0375816Y0386186D01*
X0375890Y0386044D01*
X0375961Y0385900D01*
X0376029Y0385754D01*
X0376092Y0385606D01*
X0376153Y0385457D01*
X0376209Y0385306D01*
X0376262Y0385154D01*
X0376311Y0385001D01*
X0376356Y0384847D01*
X0376397Y0384692D01*
X0376435Y0384535D01*
X0376468Y0384378D01*
X0376498Y0384220D01*
X0376524Y0384061D01*
X0376545Y0383902D01*
X0376563Y0383742D01*
X0376577Y0383582D01*
X0376587Y0383421D01*
X0376593Y0383261D01*
X0376595Y0383100D01*
X0376593Y0382939D01*
X0376587Y0382779D01*
X0376577Y0382618D01*
X0376563Y0382458D01*
X0376545Y0382298D01*
X0376524Y0382139D01*
X0376498Y0381980D01*
X0376468Y0381822D01*
X0376435Y0381665D01*
X0376397Y0381508D01*
X0376356Y0381353D01*
X0376311Y0381199D01*
X0376262Y0381046D01*
X0376209Y0380894D01*
X0376153Y0380743D01*
X0376092Y0380594D01*
X0376029Y0380446D01*
X0375961Y0380300D01*
X0375890Y0380156D01*
X0375816Y0380014D01*
X0375738Y0379873D01*
X0375656Y0379735D01*
X0375571Y0379598D01*
X0375483Y0379464D01*
X0375391Y0379332D01*
X0375296Y0379202D01*
X0375198Y0379074D01*
X0375097Y0378949D01*
X0374993Y0378827D01*
X0374886Y0378707D01*
X0374776Y0378590D01*
X0374663Y0378475D01*
X0374547Y0378364D01*
X0374428Y0378255D01*
X0374307Y0378150D01*
X0374183Y0378047D01*
X0374057Y0377947D01*
X0373929Y0377851D01*
X0373798Y0377758D01*
X0373664Y0377668D01*
X0373529Y0377581D01*
X0373391Y0377498D01*
X0373252Y0377418D01*
X0373110Y0377342D01*
X0372967Y0377269D01*
X0372822Y0377200D01*
X0372675Y0377134D01*
X0372527Y0377072D01*
X0372377Y0377014D01*
X0372226Y0376959D01*
X0372073Y0376908D01*
X0371919Y0376861D01*
X0371764Y0376818D01*
X0371608Y0376779D01*
X0371452Y0376743D01*
X0371294Y0376712D01*
X0371136Y0376684D01*
X0370977Y0376660D01*
X0370817Y0376640D01*
X0370657Y0376624D01*
X0370497Y0376612D01*
X0370336Y0376604D01*
X0370175Y0376600D01*
X0370015Y0376600D01*
X0369854Y0376604D01*
X0369693Y0376612D01*
X0369533Y0376624D01*
X0369373Y0376640D01*
X0369213Y0376660D01*
X0369054Y0376684D01*
X0368896Y0376712D01*
X0368738Y0376743D01*
X0368582Y0376779D01*
X0368426Y0376818D01*
X0368271Y0376861D01*
X0368117Y0376908D01*
X0367964Y0376959D01*
X0367813Y0377014D01*
X0367663Y0377072D01*
X0367515Y0377134D01*
X0367368Y0377200D01*
X0367223Y0377269D01*
X0367080Y0377342D01*
X0366938Y0377418D01*
X0366799Y0377498D01*
X0366661Y0377581D01*
X0366526Y0377668D01*
X0366392Y0377758D01*
X0366261Y0377851D01*
X0366133Y0377947D01*
X0366007Y0378047D01*
X0365883Y0378150D01*
X0365762Y0378255D01*
X0365643Y0378364D01*
X0365527Y0378475D01*
X0365414Y0378590D01*
X0365304Y0378707D01*
X0365197Y0378827D01*
X0365093Y0378949D01*
X0364992Y0379074D01*
X0364894Y0379202D01*
X0364799Y0379332D01*
X0364707Y0379464D01*
X0364619Y0379598D01*
X0364534Y0379735D01*
X0364452Y0379873D01*
X0364374Y0380014D01*
X0364300Y0380156D01*
X0364229Y0380300D01*
X0364161Y0380446D01*
X0364098Y0380594D01*
X0364037Y0380743D01*
X0363981Y0380894D01*
X0363928Y0381046D01*
X0363879Y0381199D01*
X0363834Y0381353D01*
X0363793Y0381508D01*
X0363755Y0381665D01*
X0363722Y0381822D01*
X0363692Y0381980D01*
X0363666Y0382139D01*
X0363645Y0382298D01*
X0363627Y0382458D01*
X0363613Y0382618D01*
X0363603Y0382779D01*
X0363597Y0382939D01*
X0363595Y0383100D01*
X0206095Y0383100D02*
X0206097Y0383261D01*
X0206103Y0383421D01*
X0206113Y0383582D01*
X0206127Y0383742D01*
X0206145Y0383902D01*
X0206166Y0384061D01*
X0206192Y0384220D01*
X0206222Y0384378D01*
X0206255Y0384535D01*
X0206293Y0384692D01*
X0206334Y0384847D01*
X0206379Y0385001D01*
X0206428Y0385154D01*
X0206481Y0385306D01*
X0206537Y0385457D01*
X0206598Y0385606D01*
X0206661Y0385754D01*
X0206729Y0385900D01*
X0206800Y0386044D01*
X0206874Y0386186D01*
X0206952Y0386327D01*
X0207034Y0386465D01*
X0207119Y0386602D01*
X0207207Y0386736D01*
X0207299Y0386868D01*
X0207394Y0386998D01*
X0207492Y0387126D01*
X0207593Y0387251D01*
X0207697Y0387373D01*
X0207804Y0387493D01*
X0207914Y0387610D01*
X0208027Y0387725D01*
X0208143Y0387836D01*
X0208262Y0387945D01*
X0208383Y0388050D01*
X0208507Y0388153D01*
X0208633Y0388253D01*
X0208761Y0388349D01*
X0208892Y0388442D01*
X0209026Y0388532D01*
X0209161Y0388619D01*
X0209299Y0388702D01*
X0209438Y0388782D01*
X0209580Y0388858D01*
X0209723Y0388931D01*
X0209868Y0389000D01*
X0210015Y0389066D01*
X0210163Y0389128D01*
X0210313Y0389186D01*
X0210464Y0389241D01*
X0210617Y0389292D01*
X0210771Y0389339D01*
X0210926Y0389382D01*
X0211082Y0389421D01*
X0211238Y0389457D01*
X0211396Y0389488D01*
X0211554Y0389516D01*
X0211713Y0389540D01*
X0211873Y0389560D01*
X0212033Y0389576D01*
X0212193Y0389588D01*
X0212354Y0389596D01*
X0212515Y0389600D01*
X0212675Y0389600D01*
X0212836Y0389596D01*
X0212997Y0389588D01*
X0213157Y0389576D01*
X0213317Y0389560D01*
X0213477Y0389540D01*
X0213636Y0389516D01*
X0213794Y0389488D01*
X0213952Y0389457D01*
X0214108Y0389421D01*
X0214264Y0389382D01*
X0214419Y0389339D01*
X0214573Y0389292D01*
X0214726Y0389241D01*
X0214877Y0389186D01*
X0215027Y0389128D01*
X0215175Y0389066D01*
X0215322Y0389000D01*
X0215467Y0388931D01*
X0215610Y0388858D01*
X0215752Y0388782D01*
X0215891Y0388702D01*
X0216029Y0388619D01*
X0216164Y0388532D01*
X0216298Y0388442D01*
X0216429Y0388349D01*
X0216557Y0388253D01*
X0216683Y0388153D01*
X0216807Y0388050D01*
X0216928Y0387945D01*
X0217047Y0387836D01*
X0217163Y0387725D01*
X0217276Y0387610D01*
X0217386Y0387493D01*
X0217493Y0387373D01*
X0217597Y0387251D01*
X0217698Y0387126D01*
X0217796Y0386998D01*
X0217891Y0386868D01*
X0217983Y0386736D01*
X0218071Y0386602D01*
X0218156Y0386465D01*
X0218238Y0386327D01*
X0218316Y0386186D01*
X0218390Y0386044D01*
X0218461Y0385900D01*
X0218529Y0385754D01*
X0218592Y0385606D01*
X0218653Y0385457D01*
X0218709Y0385306D01*
X0218762Y0385154D01*
X0218811Y0385001D01*
X0218856Y0384847D01*
X0218897Y0384692D01*
X0218935Y0384535D01*
X0218968Y0384378D01*
X0218998Y0384220D01*
X0219024Y0384061D01*
X0219045Y0383902D01*
X0219063Y0383742D01*
X0219077Y0383582D01*
X0219087Y0383421D01*
X0219093Y0383261D01*
X0219095Y0383100D01*
X0219093Y0382939D01*
X0219087Y0382779D01*
X0219077Y0382618D01*
X0219063Y0382458D01*
X0219045Y0382298D01*
X0219024Y0382139D01*
X0218998Y0381980D01*
X0218968Y0381822D01*
X0218935Y0381665D01*
X0218897Y0381508D01*
X0218856Y0381353D01*
X0218811Y0381199D01*
X0218762Y0381046D01*
X0218709Y0380894D01*
X0218653Y0380743D01*
X0218592Y0380594D01*
X0218529Y0380446D01*
X0218461Y0380300D01*
X0218390Y0380156D01*
X0218316Y0380014D01*
X0218238Y0379873D01*
X0218156Y0379735D01*
X0218071Y0379598D01*
X0217983Y0379464D01*
X0217891Y0379332D01*
X0217796Y0379202D01*
X0217698Y0379074D01*
X0217597Y0378949D01*
X0217493Y0378827D01*
X0217386Y0378707D01*
X0217276Y0378590D01*
X0217163Y0378475D01*
X0217047Y0378364D01*
X0216928Y0378255D01*
X0216807Y0378150D01*
X0216683Y0378047D01*
X0216557Y0377947D01*
X0216429Y0377851D01*
X0216298Y0377758D01*
X0216164Y0377668D01*
X0216029Y0377581D01*
X0215891Y0377498D01*
X0215752Y0377418D01*
X0215610Y0377342D01*
X0215467Y0377269D01*
X0215322Y0377200D01*
X0215175Y0377134D01*
X0215027Y0377072D01*
X0214877Y0377014D01*
X0214726Y0376959D01*
X0214573Y0376908D01*
X0214419Y0376861D01*
X0214264Y0376818D01*
X0214108Y0376779D01*
X0213952Y0376743D01*
X0213794Y0376712D01*
X0213636Y0376684D01*
X0213477Y0376660D01*
X0213317Y0376640D01*
X0213157Y0376624D01*
X0212997Y0376612D01*
X0212836Y0376604D01*
X0212675Y0376600D01*
X0212515Y0376600D01*
X0212354Y0376604D01*
X0212193Y0376612D01*
X0212033Y0376624D01*
X0211873Y0376640D01*
X0211713Y0376660D01*
X0211554Y0376684D01*
X0211396Y0376712D01*
X0211238Y0376743D01*
X0211082Y0376779D01*
X0210926Y0376818D01*
X0210771Y0376861D01*
X0210617Y0376908D01*
X0210464Y0376959D01*
X0210313Y0377014D01*
X0210163Y0377072D01*
X0210015Y0377134D01*
X0209868Y0377200D01*
X0209723Y0377269D01*
X0209580Y0377342D01*
X0209438Y0377418D01*
X0209299Y0377498D01*
X0209161Y0377581D01*
X0209026Y0377668D01*
X0208892Y0377758D01*
X0208761Y0377851D01*
X0208633Y0377947D01*
X0208507Y0378047D01*
X0208383Y0378150D01*
X0208262Y0378255D01*
X0208143Y0378364D01*
X0208027Y0378475D01*
X0207914Y0378590D01*
X0207804Y0378707D01*
X0207697Y0378827D01*
X0207593Y0378949D01*
X0207492Y0379074D01*
X0207394Y0379202D01*
X0207299Y0379332D01*
X0207207Y0379464D01*
X0207119Y0379598D01*
X0207034Y0379735D01*
X0206952Y0379873D01*
X0206874Y0380014D01*
X0206800Y0380156D01*
X0206729Y0380300D01*
X0206661Y0380446D01*
X0206598Y0380594D01*
X0206537Y0380743D01*
X0206481Y0380894D01*
X0206428Y0381046D01*
X0206379Y0381199D01*
X0206334Y0381353D01*
X0206293Y0381508D01*
X0206255Y0381665D01*
X0206222Y0381822D01*
X0206192Y0381980D01*
X0206166Y0382139D01*
X0206145Y0382298D01*
X0206127Y0382458D01*
X0206113Y0382618D01*
X0206103Y0382779D01*
X0206097Y0382939D01*
X0206095Y0383100D01*
X0102845Y0303100D02*
X0102847Y0303248D01*
X0102853Y0303396D01*
X0102863Y0303544D01*
X0102877Y0303692D01*
X0102895Y0303839D01*
X0102917Y0303986D01*
X0102943Y0304132D01*
X0102972Y0304277D01*
X0103006Y0304422D01*
X0103044Y0304565D01*
X0103085Y0304708D01*
X0103130Y0304849D01*
X0103180Y0304989D01*
X0103232Y0305127D01*
X0103289Y0305265D01*
X0103349Y0305400D01*
X0103413Y0305534D01*
X0103480Y0305666D01*
X0103551Y0305796D01*
X0103626Y0305925D01*
X0103704Y0306051D01*
X0103785Y0306175D01*
X0103869Y0306297D01*
X0103957Y0306416D01*
X0104048Y0306533D01*
X0104142Y0306648D01*
X0104240Y0306760D01*
X0104340Y0306869D01*
X0104443Y0306976D01*
X0104549Y0307080D01*
X0104657Y0307181D01*
X0104769Y0307279D01*
X0104883Y0307374D01*
X0104999Y0307465D01*
X0105118Y0307554D01*
X0105239Y0307639D01*
X0105363Y0307721D01*
X0105489Y0307800D01*
X0105616Y0307875D01*
X0105746Y0307947D01*
X0105878Y0308016D01*
X0106011Y0308080D01*
X0106146Y0308141D01*
X0106283Y0308199D01*
X0106421Y0308253D01*
X0106561Y0308303D01*
X0106702Y0308349D01*
X0106844Y0308391D01*
X0106987Y0308430D01*
X0107131Y0308464D01*
X0107277Y0308495D01*
X0107422Y0308522D01*
X0107569Y0308545D01*
X0107716Y0308564D01*
X0107864Y0308579D01*
X0108011Y0308590D01*
X0108160Y0308597D01*
X0108308Y0308600D01*
X0108456Y0308599D01*
X0108604Y0308594D01*
X0108752Y0308585D01*
X0108900Y0308572D01*
X0109048Y0308555D01*
X0109194Y0308534D01*
X0109341Y0308509D01*
X0109486Y0308480D01*
X0109631Y0308448D01*
X0109774Y0308411D01*
X0109917Y0308371D01*
X0110059Y0308326D01*
X0110199Y0308278D01*
X0110338Y0308226D01*
X0110475Y0308171D01*
X0110611Y0308111D01*
X0110746Y0308048D01*
X0110878Y0307982D01*
X0111009Y0307912D01*
X0111138Y0307838D01*
X0111264Y0307761D01*
X0111389Y0307681D01*
X0111511Y0307597D01*
X0111632Y0307510D01*
X0111749Y0307420D01*
X0111865Y0307326D01*
X0111977Y0307230D01*
X0112087Y0307131D01*
X0112195Y0307028D01*
X0112299Y0306923D01*
X0112401Y0306815D01*
X0112499Y0306704D01*
X0112595Y0306591D01*
X0112688Y0306475D01*
X0112777Y0306357D01*
X0112863Y0306236D01*
X0112946Y0306113D01*
X0113026Y0305988D01*
X0113102Y0305861D01*
X0113175Y0305731D01*
X0113244Y0305600D01*
X0113309Y0305467D01*
X0113372Y0305333D01*
X0113430Y0305196D01*
X0113485Y0305058D01*
X0113535Y0304919D01*
X0113583Y0304778D01*
X0113626Y0304637D01*
X0113666Y0304494D01*
X0113701Y0304350D01*
X0113733Y0304205D01*
X0113761Y0304059D01*
X0113785Y0303913D01*
X0113805Y0303766D01*
X0113821Y0303618D01*
X0113833Y0303471D01*
X0113841Y0303322D01*
X0113845Y0303174D01*
X0113845Y0303026D01*
X0113841Y0302878D01*
X0113833Y0302729D01*
X0113821Y0302582D01*
X0113805Y0302434D01*
X0113785Y0302287D01*
X0113761Y0302141D01*
X0113733Y0301995D01*
X0113701Y0301850D01*
X0113666Y0301706D01*
X0113626Y0301563D01*
X0113583Y0301422D01*
X0113535Y0301281D01*
X0113485Y0301142D01*
X0113430Y0301004D01*
X0113372Y0300867D01*
X0113309Y0300733D01*
X0113244Y0300600D01*
X0113175Y0300469D01*
X0113102Y0300339D01*
X0113026Y0300212D01*
X0112946Y0300087D01*
X0112863Y0299964D01*
X0112777Y0299843D01*
X0112688Y0299725D01*
X0112595Y0299609D01*
X0112499Y0299496D01*
X0112401Y0299385D01*
X0112299Y0299277D01*
X0112195Y0299172D01*
X0112087Y0299069D01*
X0111977Y0298970D01*
X0111865Y0298874D01*
X0111749Y0298780D01*
X0111632Y0298690D01*
X0111511Y0298603D01*
X0111389Y0298519D01*
X0111264Y0298439D01*
X0111138Y0298362D01*
X0111009Y0298288D01*
X0110878Y0298218D01*
X0110746Y0298152D01*
X0110611Y0298089D01*
X0110475Y0298029D01*
X0110338Y0297974D01*
X0110199Y0297922D01*
X0110059Y0297874D01*
X0109917Y0297829D01*
X0109774Y0297789D01*
X0109631Y0297752D01*
X0109486Y0297720D01*
X0109341Y0297691D01*
X0109194Y0297666D01*
X0109048Y0297645D01*
X0108900Y0297628D01*
X0108752Y0297615D01*
X0108604Y0297606D01*
X0108456Y0297601D01*
X0108308Y0297600D01*
X0108160Y0297603D01*
X0108011Y0297610D01*
X0107864Y0297621D01*
X0107716Y0297636D01*
X0107569Y0297655D01*
X0107422Y0297678D01*
X0107277Y0297705D01*
X0107131Y0297736D01*
X0106987Y0297770D01*
X0106844Y0297809D01*
X0106702Y0297851D01*
X0106561Y0297897D01*
X0106421Y0297947D01*
X0106283Y0298001D01*
X0106146Y0298059D01*
X0106011Y0298120D01*
X0105878Y0298184D01*
X0105746Y0298253D01*
X0105616Y0298325D01*
X0105489Y0298400D01*
X0105363Y0298479D01*
X0105239Y0298561D01*
X0105118Y0298646D01*
X0104999Y0298735D01*
X0104883Y0298826D01*
X0104769Y0298921D01*
X0104657Y0299019D01*
X0104549Y0299120D01*
X0104443Y0299224D01*
X0104340Y0299331D01*
X0104240Y0299440D01*
X0104142Y0299552D01*
X0104048Y0299667D01*
X0103957Y0299784D01*
X0103869Y0299903D01*
X0103785Y0300025D01*
X0103704Y0300149D01*
X0103626Y0300275D01*
X0103551Y0300404D01*
X0103480Y0300534D01*
X0103413Y0300666D01*
X0103349Y0300800D01*
X0103289Y0300935D01*
X0103232Y0301073D01*
X0103180Y0301211D01*
X0103130Y0301351D01*
X0103085Y0301492D01*
X0103044Y0301635D01*
X0103006Y0301778D01*
X0102972Y0301923D01*
X0102943Y0302068D01*
X0102917Y0302214D01*
X0102895Y0302361D01*
X0102877Y0302508D01*
X0102863Y0302656D01*
X0102853Y0302804D01*
X0102847Y0302952D01*
X0102845Y0303100D01*
X0068095Y0304600D02*
X0068097Y0304761D01*
X0068103Y0304921D01*
X0068113Y0305082D01*
X0068127Y0305242D01*
X0068145Y0305402D01*
X0068166Y0305561D01*
X0068192Y0305720D01*
X0068222Y0305878D01*
X0068255Y0306035D01*
X0068293Y0306192D01*
X0068334Y0306347D01*
X0068379Y0306501D01*
X0068428Y0306654D01*
X0068481Y0306806D01*
X0068537Y0306957D01*
X0068598Y0307106D01*
X0068661Y0307254D01*
X0068729Y0307400D01*
X0068800Y0307544D01*
X0068874Y0307686D01*
X0068952Y0307827D01*
X0069034Y0307965D01*
X0069119Y0308102D01*
X0069207Y0308236D01*
X0069299Y0308368D01*
X0069394Y0308498D01*
X0069492Y0308626D01*
X0069593Y0308751D01*
X0069697Y0308873D01*
X0069804Y0308993D01*
X0069914Y0309110D01*
X0070027Y0309225D01*
X0070143Y0309336D01*
X0070262Y0309445D01*
X0070383Y0309550D01*
X0070507Y0309653D01*
X0070633Y0309753D01*
X0070761Y0309849D01*
X0070892Y0309942D01*
X0071026Y0310032D01*
X0071161Y0310119D01*
X0071299Y0310202D01*
X0071438Y0310282D01*
X0071580Y0310358D01*
X0071723Y0310431D01*
X0071868Y0310500D01*
X0072015Y0310566D01*
X0072163Y0310628D01*
X0072313Y0310686D01*
X0072464Y0310741D01*
X0072617Y0310792D01*
X0072771Y0310839D01*
X0072926Y0310882D01*
X0073082Y0310921D01*
X0073238Y0310957D01*
X0073396Y0310988D01*
X0073554Y0311016D01*
X0073713Y0311040D01*
X0073873Y0311060D01*
X0074033Y0311076D01*
X0074193Y0311088D01*
X0074354Y0311096D01*
X0074515Y0311100D01*
X0074675Y0311100D01*
X0074836Y0311096D01*
X0074997Y0311088D01*
X0075157Y0311076D01*
X0075317Y0311060D01*
X0075477Y0311040D01*
X0075636Y0311016D01*
X0075794Y0310988D01*
X0075952Y0310957D01*
X0076108Y0310921D01*
X0076264Y0310882D01*
X0076419Y0310839D01*
X0076573Y0310792D01*
X0076726Y0310741D01*
X0076877Y0310686D01*
X0077027Y0310628D01*
X0077175Y0310566D01*
X0077322Y0310500D01*
X0077467Y0310431D01*
X0077610Y0310358D01*
X0077752Y0310282D01*
X0077891Y0310202D01*
X0078029Y0310119D01*
X0078164Y0310032D01*
X0078298Y0309942D01*
X0078429Y0309849D01*
X0078557Y0309753D01*
X0078683Y0309653D01*
X0078807Y0309550D01*
X0078928Y0309445D01*
X0079047Y0309336D01*
X0079163Y0309225D01*
X0079276Y0309110D01*
X0079386Y0308993D01*
X0079493Y0308873D01*
X0079597Y0308751D01*
X0079698Y0308626D01*
X0079796Y0308498D01*
X0079891Y0308368D01*
X0079983Y0308236D01*
X0080071Y0308102D01*
X0080156Y0307965D01*
X0080238Y0307827D01*
X0080316Y0307686D01*
X0080390Y0307544D01*
X0080461Y0307400D01*
X0080529Y0307254D01*
X0080592Y0307106D01*
X0080653Y0306957D01*
X0080709Y0306806D01*
X0080762Y0306654D01*
X0080811Y0306501D01*
X0080856Y0306347D01*
X0080897Y0306192D01*
X0080935Y0306035D01*
X0080968Y0305878D01*
X0080998Y0305720D01*
X0081024Y0305561D01*
X0081045Y0305402D01*
X0081063Y0305242D01*
X0081077Y0305082D01*
X0081087Y0304921D01*
X0081093Y0304761D01*
X0081095Y0304600D01*
X0081093Y0304439D01*
X0081087Y0304279D01*
X0081077Y0304118D01*
X0081063Y0303958D01*
X0081045Y0303798D01*
X0081024Y0303639D01*
X0080998Y0303480D01*
X0080968Y0303322D01*
X0080935Y0303165D01*
X0080897Y0303008D01*
X0080856Y0302853D01*
X0080811Y0302699D01*
X0080762Y0302546D01*
X0080709Y0302394D01*
X0080653Y0302243D01*
X0080592Y0302094D01*
X0080529Y0301946D01*
X0080461Y0301800D01*
X0080390Y0301656D01*
X0080316Y0301514D01*
X0080238Y0301373D01*
X0080156Y0301235D01*
X0080071Y0301098D01*
X0079983Y0300964D01*
X0079891Y0300832D01*
X0079796Y0300702D01*
X0079698Y0300574D01*
X0079597Y0300449D01*
X0079493Y0300327D01*
X0079386Y0300207D01*
X0079276Y0300090D01*
X0079163Y0299975D01*
X0079047Y0299864D01*
X0078928Y0299755D01*
X0078807Y0299650D01*
X0078683Y0299547D01*
X0078557Y0299447D01*
X0078429Y0299351D01*
X0078298Y0299258D01*
X0078164Y0299168D01*
X0078029Y0299081D01*
X0077891Y0298998D01*
X0077752Y0298918D01*
X0077610Y0298842D01*
X0077467Y0298769D01*
X0077322Y0298700D01*
X0077175Y0298634D01*
X0077027Y0298572D01*
X0076877Y0298514D01*
X0076726Y0298459D01*
X0076573Y0298408D01*
X0076419Y0298361D01*
X0076264Y0298318D01*
X0076108Y0298279D01*
X0075952Y0298243D01*
X0075794Y0298212D01*
X0075636Y0298184D01*
X0075477Y0298160D01*
X0075317Y0298140D01*
X0075157Y0298124D01*
X0074997Y0298112D01*
X0074836Y0298104D01*
X0074675Y0298100D01*
X0074515Y0298100D01*
X0074354Y0298104D01*
X0074193Y0298112D01*
X0074033Y0298124D01*
X0073873Y0298140D01*
X0073713Y0298160D01*
X0073554Y0298184D01*
X0073396Y0298212D01*
X0073238Y0298243D01*
X0073082Y0298279D01*
X0072926Y0298318D01*
X0072771Y0298361D01*
X0072617Y0298408D01*
X0072464Y0298459D01*
X0072313Y0298514D01*
X0072163Y0298572D01*
X0072015Y0298634D01*
X0071868Y0298700D01*
X0071723Y0298769D01*
X0071580Y0298842D01*
X0071438Y0298918D01*
X0071299Y0298998D01*
X0071161Y0299081D01*
X0071026Y0299168D01*
X0070892Y0299258D01*
X0070761Y0299351D01*
X0070633Y0299447D01*
X0070507Y0299547D01*
X0070383Y0299650D01*
X0070262Y0299755D01*
X0070143Y0299864D01*
X0070027Y0299975D01*
X0069914Y0300090D01*
X0069804Y0300207D01*
X0069697Y0300327D01*
X0069593Y0300449D01*
X0069492Y0300574D01*
X0069394Y0300702D01*
X0069299Y0300832D01*
X0069207Y0300964D01*
X0069119Y0301098D01*
X0069034Y0301235D01*
X0068952Y0301373D01*
X0068874Y0301514D01*
X0068800Y0301656D01*
X0068729Y0301800D01*
X0068661Y0301946D01*
X0068598Y0302094D01*
X0068537Y0302243D01*
X0068481Y0302394D01*
X0068428Y0302546D01*
X0068379Y0302699D01*
X0068334Y0302853D01*
X0068293Y0303008D01*
X0068255Y0303165D01*
X0068222Y0303322D01*
X0068192Y0303480D01*
X0068166Y0303639D01*
X0068145Y0303798D01*
X0068127Y0303958D01*
X0068113Y0304118D01*
X0068103Y0304279D01*
X0068097Y0304439D01*
X0068095Y0304600D01*
X0068095Y0383100D02*
X0068097Y0383261D01*
X0068103Y0383421D01*
X0068113Y0383582D01*
X0068127Y0383742D01*
X0068145Y0383902D01*
X0068166Y0384061D01*
X0068192Y0384220D01*
X0068222Y0384378D01*
X0068255Y0384535D01*
X0068293Y0384692D01*
X0068334Y0384847D01*
X0068379Y0385001D01*
X0068428Y0385154D01*
X0068481Y0385306D01*
X0068537Y0385457D01*
X0068598Y0385606D01*
X0068661Y0385754D01*
X0068729Y0385900D01*
X0068800Y0386044D01*
X0068874Y0386186D01*
X0068952Y0386327D01*
X0069034Y0386465D01*
X0069119Y0386602D01*
X0069207Y0386736D01*
X0069299Y0386868D01*
X0069394Y0386998D01*
X0069492Y0387126D01*
X0069593Y0387251D01*
X0069697Y0387373D01*
X0069804Y0387493D01*
X0069914Y0387610D01*
X0070027Y0387725D01*
X0070143Y0387836D01*
X0070262Y0387945D01*
X0070383Y0388050D01*
X0070507Y0388153D01*
X0070633Y0388253D01*
X0070761Y0388349D01*
X0070892Y0388442D01*
X0071026Y0388532D01*
X0071161Y0388619D01*
X0071299Y0388702D01*
X0071438Y0388782D01*
X0071580Y0388858D01*
X0071723Y0388931D01*
X0071868Y0389000D01*
X0072015Y0389066D01*
X0072163Y0389128D01*
X0072313Y0389186D01*
X0072464Y0389241D01*
X0072617Y0389292D01*
X0072771Y0389339D01*
X0072926Y0389382D01*
X0073082Y0389421D01*
X0073238Y0389457D01*
X0073396Y0389488D01*
X0073554Y0389516D01*
X0073713Y0389540D01*
X0073873Y0389560D01*
X0074033Y0389576D01*
X0074193Y0389588D01*
X0074354Y0389596D01*
X0074515Y0389600D01*
X0074675Y0389600D01*
X0074836Y0389596D01*
X0074997Y0389588D01*
X0075157Y0389576D01*
X0075317Y0389560D01*
X0075477Y0389540D01*
X0075636Y0389516D01*
X0075794Y0389488D01*
X0075952Y0389457D01*
X0076108Y0389421D01*
X0076264Y0389382D01*
X0076419Y0389339D01*
X0076573Y0389292D01*
X0076726Y0389241D01*
X0076877Y0389186D01*
X0077027Y0389128D01*
X0077175Y0389066D01*
X0077322Y0389000D01*
X0077467Y0388931D01*
X0077610Y0388858D01*
X0077752Y0388782D01*
X0077891Y0388702D01*
X0078029Y0388619D01*
X0078164Y0388532D01*
X0078298Y0388442D01*
X0078429Y0388349D01*
X0078557Y0388253D01*
X0078683Y0388153D01*
X0078807Y0388050D01*
X0078928Y0387945D01*
X0079047Y0387836D01*
X0079163Y0387725D01*
X0079276Y0387610D01*
X0079386Y0387493D01*
X0079493Y0387373D01*
X0079597Y0387251D01*
X0079698Y0387126D01*
X0079796Y0386998D01*
X0079891Y0386868D01*
X0079983Y0386736D01*
X0080071Y0386602D01*
X0080156Y0386465D01*
X0080238Y0386327D01*
X0080316Y0386186D01*
X0080390Y0386044D01*
X0080461Y0385900D01*
X0080529Y0385754D01*
X0080592Y0385606D01*
X0080653Y0385457D01*
X0080709Y0385306D01*
X0080762Y0385154D01*
X0080811Y0385001D01*
X0080856Y0384847D01*
X0080897Y0384692D01*
X0080935Y0384535D01*
X0080968Y0384378D01*
X0080998Y0384220D01*
X0081024Y0384061D01*
X0081045Y0383902D01*
X0081063Y0383742D01*
X0081077Y0383582D01*
X0081087Y0383421D01*
X0081093Y0383261D01*
X0081095Y0383100D01*
X0081093Y0382939D01*
X0081087Y0382779D01*
X0081077Y0382618D01*
X0081063Y0382458D01*
X0081045Y0382298D01*
X0081024Y0382139D01*
X0080998Y0381980D01*
X0080968Y0381822D01*
X0080935Y0381665D01*
X0080897Y0381508D01*
X0080856Y0381353D01*
X0080811Y0381199D01*
X0080762Y0381046D01*
X0080709Y0380894D01*
X0080653Y0380743D01*
X0080592Y0380594D01*
X0080529Y0380446D01*
X0080461Y0380300D01*
X0080390Y0380156D01*
X0080316Y0380014D01*
X0080238Y0379873D01*
X0080156Y0379735D01*
X0080071Y0379598D01*
X0079983Y0379464D01*
X0079891Y0379332D01*
X0079796Y0379202D01*
X0079698Y0379074D01*
X0079597Y0378949D01*
X0079493Y0378827D01*
X0079386Y0378707D01*
X0079276Y0378590D01*
X0079163Y0378475D01*
X0079047Y0378364D01*
X0078928Y0378255D01*
X0078807Y0378150D01*
X0078683Y0378047D01*
X0078557Y0377947D01*
X0078429Y0377851D01*
X0078298Y0377758D01*
X0078164Y0377668D01*
X0078029Y0377581D01*
X0077891Y0377498D01*
X0077752Y0377418D01*
X0077610Y0377342D01*
X0077467Y0377269D01*
X0077322Y0377200D01*
X0077175Y0377134D01*
X0077027Y0377072D01*
X0076877Y0377014D01*
X0076726Y0376959D01*
X0076573Y0376908D01*
X0076419Y0376861D01*
X0076264Y0376818D01*
X0076108Y0376779D01*
X0075952Y0376743D01*
X0075794Y0376712D01*
X0075636Y0376684D01*
X0075477Y0376660D01*
X0075317Y0376640D01*
X0075157Y0376624D01*
X0074997Y0376612D01*
X0074836Y0376604D01*
X0074675Y0376600D01*
X0074515Y0376600D01*
X0074354Y0376604D01*
X0074193Y0376612D01*
X0074033Y0376624D01*
X0073873Y0376640D01*
X0073713Y0376660D01*
X0073554Y0376684D01*
X0073396Y0376712D01*
X0073238Y0376743D01*
X0073082Y0376779D01*
X0072926Y0376818D01*
X0072771Y0376861D01*
X0072617Y0376908D01*
X0072464Y0376959D01*
X0072313Y0377014D01*
X0072163Y0377072D01*
X0072015Y0377134D01*
X0071868Y0377200D01*
X0071723Y0377269D01*
X0071580Y0377342D01*
X0071438Y0377418D01*
X0071299Y0377498D01*
X0071161Y0377581D01*
X0071026Y0377668D01*
X0070892Y0377758D01*
X0070761Y0377851D01*
X0070633Y0377947D01*
X0070507Y0378047D01*
X0070383Y0378150D01*
X0070262Y0378255D01*
X0070143Y0378364D01*
X0070027Y0378475D01*
X0069914Y0378590D01*
X0069804Y0378707D01*
X0069697Y0378827D01*
X0069593Y0378949D01*
X0069492Y0379074D01*
X0069394Y0379202D01*
X0069299Y0379332D01*
X0069207Y0379464D01*
X0069119Y0379598D01*
X0069034Y0379735D01*
X0068952Y0379873D01*
X0068874Y0380014D01*
X0068800Y0380156D01*
X0068729Y0380300D01*
X0068661Y0380446D01*
X0068598Y0380594D01*
X0068537Y0380743D01*
X0068481Y0380894D01*
X0068428Y0381046D01*
X0068379Y0381199D01*
X0068334Y0381353D01*
X0068293Y0381508D01*
X0068255Y0381665D01*
X0068222Y0381822D01*
X0068192Y0381980D01*
X0068166Y0382139D01*
X0068145Y0382298D01*
X0068127Y0382458D01*
X0068113Y0382618D01*
X0068103Y0382779D01*
X0068097Y0382939D01*
X0068095Y0383100D01*
X0102845Y0110350D02*
X0102847Y0110498D01*
X0102853Y0110646D01*
X0102863Y0110794D01*
X0102877Y0110942D01*
X0102895Y0111089D01*
X0102917Y0111236D01*
X0102943Y0111382D01*
X0102972Y0111527D01*
X0103006Y0111672D01*
X0103044Y0111815D01*
X0103085Y0111958D01*
X0103130Y0112099D01*
X0103180Y0112239D01*
X0103232Y0112377D01*
X0103289Y0112515D01*
X0103349Y0112650D01*
X0103413Y0112784D01*
X0103480Y0112916D01*
X0103551Y0113046D01*
X0103626Y0113175D01*
X0103704Y0113301D01*
X0103785Y0113425D01*
X0103869Y0113547D01*
X0103957Y0113666D01*
X0104048Y0113783D01*
X0104142Y0113898D01*
X0104240Y0114010D01*
X0104340Y0114119D01*
X0104443Y0114226D01*
X0104549Y0114330D01*
X0104657Y0114431D01*
X0104769Y0114529D01*
X0104883Y0114624D01*
X0104999Y0114715D01*
X0105118Y0114804D01*
X0105239Y0114889D01*
X0105363Y0114971D01*
X0105489Y0115050D01*
X0105616Y0115125D01*
X0105746Y0115197D01*
X0105878Y0115266D01*
X0106011Y0115330D01*
X0106146Y0115391D01*
X0106283Y0115449D01*
X0106421Y0115503D01*
X0106561Y0115553D01*
X0106702Y0115599D01*
X0106844Y0115641D01*
X0106987Y0115680D01*
X0107131Y0115714D01*
X0107277Y0115745D01*
X0107422Y0115772D01*
X0107569Y0115795D01*
X0107716Y0115814D01*
X0107864Y0115829D01*
X0108011Y0115840D01*
X0108160Y0115847D01*
X0108308Y0115850D01*
X0108456Y0115849D01*
X0108604Y0115844D01*
X0108752Y0115835D01*
X0108900Y0115822D01*
X0109048Y0115805D01*
X0109194Y0115784D01*
X0109341Y0115759D01*
X0109486Y0115730D01*
X0109631Y0115698D01*
X0109774Y0115661D01*
X0109917Y0115621D01*
X0110059Y0115576D01*
X0110199Y0115528D01*
X0110338Y0115476D01*
X0110475Y0115421D01*
X0110611Y0115361D01*
X0110746Y0115298D01*
X0110878Y0115232D01*
X0111009Y0115162D01*
X0111138Y0115088D01*
X0111264Y0115011D01*
X0111389Y0114931D01*
X0111511Y0114847D01*
X0111632Y0114760D01*
X0111749Y0114670D01*
X0111865Y0114576D01*
X0111977Y0114480D01*
X0112087Y0114381D01*
X0112195Y0114278D01*
X0112299Y0114173D01*
X0112401Y0114065D01*
X0112499Y0113954D01*
X0112595Y0113841D01*
X0112688Y0113725D01*
X0112777Y0113607D01*
X0112863Y0113486D01*
X0112946Y0113363D01*
X0113026Y0113238D01*
X0113102Y0113111D01*
X0113175Y0112981D01*
X0113244Y0112850D01*
X0113309Y0112717D01*
X0113372Y0112583D01*
X0113430Y0112446D01*
X0113485Y0112308D01*
X0113535Y0112169D01*
X0113583Y0112028D01*
X0113626Y0111887D01*
X0113666Y0111744D01*
X0113701Y0111600D01*
X0113733Y0111455D01*
X0113761Y0111309D01*
X0113785Y0111163D01*
X0113805Y0111016D01*
X0113821Y0110868D01*
X0113833Y0110721D01*
X0113841Y0110572D01*
X0113845Y0110424D01*
X0113845Y0110276D01*
X0113841Y0110128D01*
X0113833Y0109979D01*
X0113821Y0109832D01*
X0113805Y0109684D01*
X0113785Y0109537D01*
X0113761Y0109391D01*
X0113733Y0109245D01*
X0113701Y0109100D01*
X0113666Y0108956D01*
X0113626Y0108813D01*
X0113583Y0108672D01*
X0113535Y0108531D01*
X0113485Y0108392D01*
X0113430Y0108254D01*
X0113372Y0108117D01*
X0113309Y0107983D01*
X0113244Y0107850D01*
X0113175Y0107719D01*
X0113102Y0107589D01*
X0113026Y0107462D01*
X0112946Y0107337D01*
X0112863Y0107214D01*
X0112777Y0107093D01*
X0112688Y0106975D01*
X0112595Y0106859D01*
X0112499Y0106746D01*
X0112401Y0106635D01*
X0112299Y0106527D01*
X0112195Y0106422D01*
X0112087Y0106319D01*
X0111977Y0106220D01*
X0111865Y0106124D01*
X0111749Y0106030D01*
X0111632Y0105940D01*
X0111511Y0105853D01*
X0111389Y0105769D01*
X0111264Y0105689D01*
X0111138Y0105612D01*
X0111009Y0105538D01*
X0110878Y0105468D01*
X0110746Y0105402D01*
X0110611Y0105339D01*
X0110475Y0105279D01*
X0110338Y0105224D01*
X0110199Y0105172D01*
X0110059Y0105124D01*
X0109917Y0105079D01*
X0109774Y0105039D01*
X0109631Y0105002D01*
X0109486Y0104970D01*
X0109341Y0104941D01*
X0109194Y0104916D01*
X0109048Y0104895D01*
X0108900Y0104878D01*
X0108752Y0104865D01*
X0108604Y0104856D01*
X0108456Y0104851D01*
X0108308Y0104850D01*
X0108160Y0104853D01*
X0108011Y0104860D01*
X0107864Y0104871D01*
X0107716Y0104886D01*
X0107569Y0104905D01*
X0107422Y0104928D01*
X0107277Y0104955D01*
X0107131Y0104986D01*
X0106987Y0105020D01*
X0106844Y0105059D01*
X0106702Y0105101D01*
X0106561Y0105147D01*
X0106421Y0105197D01*
X0106283Y0105251D01*
X0106146Y0105309D01*
X0106011Y0105370D01*
X0105878Y0105434D01*
X0105746Y0105503D01*
X0105616Y0105575D01*
X0105489Y0105650D01*
X0105363Y0105729D01*
X0105239Y0105811D01*
X0105118Y0105896D01*
X0104999Y0105985D01*
X0104883Y0106076D01*
X0104769Y0106171D01*
X0104657Y0106269D01*
X0104549Y0106370D01*
X0104443Y0106474D01*
X0104340Y0106581D01*
X0104240Y0106690D01*
X0104142Y0106802D01*
X0104048Y0106917D01*
X0103957Y0107034D01*
X0103869Y0107153D01*
X0103785Y0107275D01*
X0103704Y0107399D01*
X0103626Y0107525D01*
X0103551Y0107654D01*
X0103480Y0107784D01*
X0103413Y0107916D01*
X0103349Y0108050D01*
X0103289Y0108185D01*
X0103232Y0108323D01*
X0103180Y0108461D01*
X0103130Y0108601D01*
X0103085Y0108742D01*
X0103044Y0108885D01*
X0103006Y0109028D01*
X0102972Y0109173D01*
X0102943Y0109318D01*
X0102917Y0109464D01*
X0102895Y0109611D01*
X0102877Y0109758D01*
X0102863Y0109906D01*
X0102853Y0110054D01*
X0102847Y0110202D01*
X0102845Y0110350D01*
X0068095Y0028850D02*
X0068097Y0029011D01*
X0068103Y0029171D01*
X0068113Y0029332D01*
X0068127Y0029492D01*
X0068145Y0029652D01*
X0068166Y0029811D01*
X0068192Y0029970D01*
X0068222Y0030128D01*
X0068255Y0030285D01*
X0068293Y0030442D01*
X0068334Y0030597D01*
X0068379Y0030751D01*
X0068428Y0030904D01*
X0068481Y0031056D01*
X0068537Y0031207D01*
X0068598Y0031356D01*
X0068661Y0031504D01*
X0068729Y0031650D01*
X0068800Y0031794D01*
X0068874Y0031936D01*
X0068952Y0032077D01*
X0069034Y0032215D01*
X0069119Y0032352D01*
X0069207Y0032486D01*
X0069299Y0032618D01*
X0069394Y0032748D01*
X0069492Y0032876D01*
X0069593Y0033001D01*
X0069697Y0033123D01*
X0069804Y0033243D01*
X0069914Y0033360D01*
X0070027Y0033475D01*
X0070143Y0033586D01*
X0070262Y0033695D01*
X0070383Y0033800D01*
X0070507Y0033903D01*
X0070633Y0034003D01*
X0070761Y0034099D01*
X0070892Y0034192D01*
X0071026Y0034282D01*
X0071161Y0034369D01*
X0071299Y0034452D01*
X0071438Y0034532D01*
X0071580Y0034608D01*
X0071723Y0034681D01*
X0071868Y0034750D01*
X0072015Y0034816D01*
X0072163Y0034878D01*
X0072313Y0034936D01*
X0072464Y0034991D01*
X0072617Y0035042D01*
X0072771Y0035089D01*
X0072926Y0035132D01*
X0073082Y0035171D01*
X0073238Y0035207D01*
X0073396Y0035238D01*
X0073554Y0035266D01*
X0073713Y0035290D01*
X0073873Y0035310D01*
X0074033Y0035326D01*
X0074193Y0035338D01*
X0074354Y0035346D01*
X0074515Y0035350D01*
X0074675Y0035350D01*
X0074836Y0035346D01*
X0074997Y0035338D01*
X0075157Y0035326D01*
X0075317Y0035310D01*
X0075477Y0035290D01*
X0075636Y0035266D01*
X0075794Y0035238D01*
X0075952Y0035207D01*
X0076108Y0035171D01*
X0076264Y0035132D01*
X0076419Y0035089D01*
X0076573Y0035042D01*
X0076726Y0034991D01*
X0076877Y0034936D01*
X0077027Y0034878D01*
X0077175Y0034816D01*
X0077322Y0034750D01*
X0077467Y0034681D01*
X0077610Y0034608D01*
X0077752Y0034532D01*
X0077891Y0034452D01*
X0078029Y0034369D01*
X0078164Y0034282D01*
X0078298Y0034192D01*
X0078429Y0034099D01*
X0078557Y0034003D01*
X0078683Y0033903D01*
X0078807Y0033800D01*
X0078928Y0033695D01*
X0079047Y0033586D01*
X0079163Y0033475D01*
X0079276Y0033360D01*
X0079386Y0033243D01*
X0079493Y0033123D01*
X0079597Y0033001D01*
X0079698Y0032876D01*
X0079796Y0032748D01*
X0079891Y0032618D01*
X0079983Y0032486D01*
X0080071Y0032352D01*
X0080156Y0032215D01*
X0080238Y0032077D01*
X0080316Y0031936D01*
X0080390Y0031794D01*
X0080461Y0031650D01*
X0080529Y0031504D01*
X0080592Y0031356D01*
X0080653Y0031207D01*
X0080709Y0031056D01*
X0080762Y0030904D01*
X0080811Y0030751D01*
X0080856Y0030597D01*
X0080897Y0030442D01*
X0080935Y0030285D01*
X0080968Y0030128D01*
X0080998Y0029970D01*
X0081024Y0029811D01*
X0081045Y0029652D01*
X0081063Y0029492D01*
X0081077Y0029332D01*
X0081087Y0029171D01*
X0081093Y0029011D01*
X0081095Y0028850D01*
X0081093Y0028689D01*
X0081087Y0028529D01*
X0081077Y0028368D01*
X0081063Y0028208D01*
X0081045Y0028048D01*
X0081024Y0027889D01*
X0080998Y0027730D01*
X0080968Y0027572D01*
X0080935Y0027415D01*
X0080897Y0027258D01*
X0080856Y0027103D01*
X0080811Y0026949D01*
X0080762Y0026796D01*
X0080709Y0026644D01*
X0080653Y0026493D01*
X0080592Y0026344D01*
X0080529Y0026196D01*
X0080461Y0026050D01*
X0080390Y0025906D01*
X0080316Y0025764D01*
X0080238Y0025623D01*
X0080156Y0025485D01*
X0080071Y0025348D01*
X0079983Y0025214D01*
X0079891Y0025082D01*
X0079796Y0024952D01*
X0079698Y0024824D01*
X0079597Y0024699D01*
X0079493Y0024577D01*
X0079386Y0024457D01*
X0079276Y0024340D01*
X0079163Y0024225D01*
X0079047Y0024114D01*
X0078928Y0024005D01*
X0078807Y0023900D01*
X0078683Y0023797D01*
X0078557Y0023697D01*
X0078429Y0023601D01*
X0078298Y0023508D01*
X0078164Y0023418D01*
X0078029Y0023331D01*
X0077891Y0023248D01*
X0077752Y0023168D01*
X0077610Y0023092D01*
X0077467Y0023019D01*
X0077322Y0022950D01*
X0077175Y0022884D01*
X0077027Y0022822D01*
X0076877Y0022764D01*
X0076726Y0022709D01*
X0076573Y0022658D01*
X0076419Y0022611D01*
X0076264Y0022568D01*
X0076108Y0022529D01*
X0075952Y0022493D01*
X0075794Y0022462D01*
X0075636Y0022434D01*
X0075477Y0022410D01*
X0075317Y0022390D01*
X0075157Y0022374D01*
X0074997Y0022362D01*
X0074836Y0022354D01*
X0074675Y0022350D01*
X0074515Y0022350D01*
X0074354Y0022354D01*
X0074193Y0022362D01*
X0074033Y0022374D01*
X0073873Y0022390D01*
X0073713Y0022410D01*
X0073554Y0022434D01*
X0073396Y0022462D01*
X0073238Y0022493D01*
X0073082Y0022529D01*
X0072926Y0022568D01*
X0072771Y0022611D01*
X0072617Y0022658D01*
X0072464Y0022709D01*
X0072313Y0022764D01*
X0072163Y0022822D01*
X0072015Y0022884D01*
X0071868Y0022950D01*
X0071723Y0023019D01*
X0071580Y0023092D01*
X0071438Y0023168D01*
X0071299Y0023248D01*
X0071161Y0023331D01*
X0071026Y0023418D01*
X0070892Y0023508D01*
X0070761Y0023601D01*
X0070633Y0023697D01*
X0070507Y0023797D01*
X0070383Y0023900D01*
X0070262Y0024005D01*
X0070143Y0024114D01*
X0070027Y0024225D01*
X0069914Y0024340D01*
X0069804Y0024457D01*
X0069697Y0024577D01*
X0069593Y0024699D01*
X0069492Y0024824D01*
X0069394Y0024952D01*
X0069299Y0025082D01*
X0069207Y0025214D01*
X0069119Y0025348D01*
X0069034Y0025485D01*
X0068952Y0025623D01*
X0068874Y0025764D01*
X0068800Y0025906D01*
X0068729Y0026050D01*
X0068661Y0026196D01*
X0068598Y0026344D01*
X0068537Y0026493D01*
X0068481Y0026644D01*
X0068428Y0026796D01*
X0068379Y0026949D01*
X0068334Y0027103D01*
X0068293Y0027258D01*
X0068255Y0027415D01*
X0068222Y0027572D01*
X0068192Y0027730D01*
X0068166Y0027889D01*
X0068145Y0028048D01*
X0068127Y0028208D01*
X0068113Y0028368D01*
X0068103Y0028529D01*
X0068097Y0028689D01*
X0068095Y0028850D01*
M02*
