%
M48
M72
T01C0.01400
T02C0.02200
T03C0.03150
T04C0.03200
T05C0.03543
T06C0.03937
T07C0.04000
T08C0.04016
T09C0.04400
T10C0.05512
T11C0.11000
T12C0.11800
T13C0.13000
%
T01
X399595Y24100
X344595Y24100
X292095Y154100
X312095Y166600
X284595Y189100
X257095Y199100
X237095Y199100
X199595Y196600
X187095Y204100
X220595Y246600
X264595Y281600
X272095Y288600
X279595Y263600
X329095Y264600
X372095Y286600
X379595Y281600
X384595Y276600
X432095Y299100
X322095Y364100
X307095Y381600
X257095Y369100
X174595Y381600
X74595Y276600
X132095Y269100
X149595Y271600
X142095Y226600
X154595Y141600
X72095Y116600
X72095Y61600
X167095Y31600
X252095Y21600
X359595Y129100
X359595Y134100
X359595Y139100
X359595Y144100
X359595Y149100
X359595Y154100
X359595Y159100
X359595Y164100
X364595Y164100
X364595Y159100
X364595Y154100
X364595Y149100
X364595Y144100
X364595Y139100
X364595Y134100
X364595Y129100
X369595Y129100
X369595Y134100
X369595Y139100
X369595Y144100
X369595Y149100
X369595Y154100
X369595Y159100
X369595Y164100
X374595Y164100
X374595Y159100
X374595Y154100
X374595Y149100
X374595Y144100
X374595Y139100
X374595Y134100
X374595Y129100
X379595Y129100
X379595Y134100
X379595Y139100
X379595Y144100
X379595Y149100
X379595Y154100
X379595Y159100
X379595Y164100
X384595Y164100
X384595Y159100
X384595Y154100
X384595Y149100
X384595Y144100
X384595Y139100
X384595Y134100
X384595Y129100
X389595Y129100
X389595Y134100
X389595Y139100
X389595Y144100
X389595Y149100
X389595Y154100
X389595Y159100
X389595Y164100
X389595Y169100
X384595Y169100
X379595Y169100
X374595Y169100
X369595Y169100
X364595Y169100
X359595Y169100
X359595Y174100
X359595Y179100
X359595Y184100
X364595Y184100
X364595Y179100
X364595Y174100
X369595Y174100
X369595Y179100
X369595Y184100
X374595Y184100
X374595Y179100
X374595Y174100
X379595Y174100
X379595Y179100
X379595Y184100
X384595Y184100
X384595Y179100
X384595Y174100
X389595Y174100
X389595Y179100
X389595Y184100
X424595Y154100
X414595Y134100
X409595Y134100
X407095Y139100
X409595Y124100
X414595Y124100
X404595Y121600
X399595Y121600
X394595Y121600
X389595Y124100
X417095Y104100
X74595Y351600
T02
X418095Y129100
T03
X286032Y54100
X293906Y54100
X278158Y54100
X270284Y54100
X236406Y54100
X228532Y54100
X220658Y54100
X212784Y54100
X399595Y380911
X399595Y373037
X399595Y365163
X399595Y357289
T04
X82095Y151600
X72095Y151600
X72095Y184100
X82095Y184100
X82095Y216600
X72095Y216600
X72095Y249100
X82095Y249100
T05
X427570Y56575
X427620Y66600
X427570Y76600
X427620Y86600
X399595Y84100
X359595Y84100
X332095Y199100
X332095Y211600
X332095Y224100
X362095Y224100
X362095Y211600
X362095Y199100
X384595Y331600
X424595Y331600
X217095Y256600
X197095Y256600
X177095Y256600
X157095Y256600
X157095Y216600
X177095Y216600
X197095Y216600
X217095Y216600
X109595Y349625
X119595Y349575
X129595Y349625
X139620Y349575
X139620Y362075
X129595Y362125
X119595Y362075
X109595Y362125
X109595Y374625
X119595Y374575
X129595Y374625
X139620Y374575
T06
X252095Y236600
X242095Y236600
X232095Y236600
X232095Y281600
X242095Y281600
X252095Y281600
T07
X336095Y84850
X326095Y85850
X316095Y84850
X166095Y84850
X156095Y85850
X146095Y84850
X127595Y298350
X127595Y308350
X137595Y308350
X137595Y298350
X147595Y298350
X147595Y308350
X157595Y308350
X157595Y298350
X167595Y298350
X167595Y308350
X177595Y308350
X177595Y298350
X187595Y298350
X187595Y308350
X197595Y308350
X197595Y298350
X207595Y298350
X207595Y308350
X217595Y308350
X217595Y298350
X227595Y298350
X227595Y308350
X237595Y308350
X237595Y298350
X247595Y298350
X247595Y308350
X257595Y308350
X257595Y298350
X267595Y298350
X267595Y308350
X277595Y308350
X277595Y298350
X287595Y298350
X287595Y308350
X297595Y308350
X297595Y298350
X307595Y298350
X307595Y308350
X317595Y308350
X317595Y298350
X326095Y326100
X316095Y327100
X306095Y326100
X296095Y327100
X286095Y326100
X276095Y327100
X266095Y326100
X256095Y327100
X246095Y326100
X236095Y327100
X226095Y326100
X216095Y327100
X206095Y326100
X196095Y327100
X186095Y326100
X176095Y327100
X166095Y326100
X156095Y327100
X346095Y326100
X336095Y327100
T08
X244095Y156600
X234095Y156600
X202095Y156600
X192095Y156600
X192095Y81600
X202095Y81600
X234095Y81600
X244095Y81600
T09
X169595Y126600
X129595Y126600
T10
X389438Y52328
X369753Y52328
X349438Y52328
X329753Y52328
X176938Y52328
X157253Y52328
T11
X336845Y110350
X108345Y110350
X108345Y303100
X336595Y303350
T12
X133099Y53726
X114595Y65537
X114595Y41915
T13
X422095Y29600
X74595Y28850
X74595Y304600
X74595Y383100
X370095Y383100
X212595Y383100
M30
